<?xml version="1.0" encoding="UTF-8" standalone="no"?>
<!DOCTYPE svg PUBLIC "-//W3C//DTD SVG 1.1//EN"
 "http://www.w3.org/Graphics/SVG/1.1/DTD/svg11.dtd">
<!-- Generated by graphviz version 2.43.0 (0)
 -->
<!-- Title: %3 Pages: 1 -->
<svg width="1068pt" height="332pt"
 viewBox="0.00 0.00 1067.60 332.00" xmlns="http://www.w3.org/2000/svg" xmlns:xlink="http://www.w3.org/1999/xlink">
<g id="graph0" class="graph" transform="scale(1 1) rotate(0) translate(4 328)">
<title>%3</title>
<polygon fill="white" stroke="transparent" points="-4,4 -4,-328 1063.6,-328 1063.6,4 -4,4"/>
<!-- [root] esxi_guest.vmtest1 (expand) -->
<g id="node1" class="node">
<title>[root] esxi_guest.vmtest1 (expand)</title>
<polygon fill="none" stroke="black" points="483.43,-180 328.43,-180 328.43,-144 483.43,-144 483.43,-180"/>
<text text-anchor="middle" x="405.93" y="-158.3" font-family="Times,serif" font-size="14.00">esxi_guest.vmtest1</text>
</g>
<!-- [root] provider[&quot;registry.terraform.io/kube&#45;cloud/esxi&quot;] -->
<g id="node3" class="node">
<title>[root] provider[&quot;registry.terraform.io/kube&#45;cloud/esxi&quot;]</title>
<polygon fill="none" stroke="black" points="491.93,-108 158.96,-90 491.93,-72 824.9,-90 491.93,-108"/>
<text text-anchor="middle" x="491.93" y="-86.3" font-family="Times,serif" font-size="14.00">provider[&quot;registry.terraform.io/kube&#45;cloud/esxi&quot;]</text>
</g>
<!-- [root] esxi_guest.vmtest1 (expand)&#45;&gt;[root] provider[&quot;registry.terraform.io/kube&#45;cloud/esxi&quot;] -->
<g id="edge1" class="edge">
<title>[root] esxi_guest.vmtest1 (expand)&#45;&gt;[root] provider[&quot;registry.terraform.io/kube&#45;cloud/esxi&quot;]</title>
<path fill="none" stroke="black" d="M427.19,-143.7C438.34,-134.62 452.15,-123.38 464.14,-113.62"/>
<polygon fill="black" stroke="black" points="466.55,-116.17 472.1,-107.14 462.13,-110.74 466.55,-116.17"/>
</g>
<!-- [root] esxi_guest.vmtest2 (expand) -->
<g id="node2" class="node">
<title>[root] esxi_guest.vmtest2 (expand)</title>
<polygon fill="none" stroke="black" points="656.43,-180 501.43,-180 501.43,-144 656.43,-144 656.43,-180"/>
<text text-anchor="middle" x="578.93" y="-158.3" font-family="Times,serif" font-size="14.00">esxi_guest.vmtest2</text>
</g>
<!-- [root] esxi_guest.vmtest2 (expand)&#45;&gt;[root] provider[&quot;registry.terraform.io/kube&#45;cloud/esxi&quot;] -->
<g id="edge2" class="edge">
<title>[root] esxi_guest.vmtest2 (expand)&#45;&gt;[root] provider[&quot;registry.terraform.io/kube&#45;cloud/esxi&quot;]</title>
<path fill="none" stroke="black" d="M557.42,-143.7C546.14,-134.62 532.18,-123.38 520.05,-113.62"/>
<polygon fill="black" stroke="black" points="521.98,-110.69 512,-107.14 517.59,-116.14 521.98,-110.69"/>
</g>
<!-- [root] var.esxi_hostname -->
<g id="node4" class="node">
<title>[root] var.esxi_hostname</title>
<polygon fill="none" stroke="black" points="245.93,-36 103.93,-36 103.93,0 251.93,0 251.93,-30 245.93,-36"/>
<polyline fill="none" stroke="black" points="245.93,-36 245.93,-30 "/>
<polyline fill="none" stroke="black" points="251.93,-30 245.93,-30 "/>
<text text-anchor="middle" x="177.93" y="-14.3" font-family="Times,serif" font-size="14.00">var.esxi_hostname</text>
</g>
<!-- [root] provider[&quot;registry.terraform.io/kube&#45;cloud/esxi&quot;]&#45;&gt;[root] var.esxi_hostname -->
<g id="edge7" class="edge">
<title>[root] provider[&quot;registry.terraform.io/kube&#45;cloud/esxi&quot;]&#45;&gt;[root] var.esxi_hostname</title>
<path fill="none" stroke="black" d="M430.27,-75.25C382.28,-64.56 315.17,-49.59 262.22,-37.79"/>
<polygon fill="black" stroke="black" points="262.69,-34.31 252.17,-35.55 261.16,-41.14 262.69,-34.31"/>
</g>
<!-- [root] var.esxi_hostport -->
<g id="node5" class="node">
<title>[root] var.esxi_hostport</title>
<polygon fill="none" stroke="black" points="403.43,-36 270.43,-36 270.43,0 409.43,0 409.43,-30 403.43,-36"/>
<polyline fill="none" stroke="black" points="403.43,-36 403.43,-30 "/>
<polyline fill="none" stroke="black" points="409.43,-30 403.43,-30 "/>
<text text-anchor="middle" x="339.93" y="-14.3" font-family="Times,serif" font-size="14.00">var.esxi_hostport</text>
</g>
<!-- [root] provider[&quot;registry.terraform.io/kube&#45;cloud/esxi&quot;]&#45;&gt;[root] var.esxi_hostport -->
<g id="edge8" class="edge">
<title>[root] provider[&quot;registry.terraform.io/kube&#45;cloud/esxi&quot;]&#45;&gt;[root] var.esxi_hostport</title>
<path fill="none" stroke="black" d="M458.57,-73.64C437.37,-63.88 409.63,-51.1 386.3,-40.36"/>
<polygon fill="black" stroke="black" points="387.49,-37.05 376.94,-36.04 384.56,-43.41 387.49,-37.05"/>
</g>
<!-- [root] var.esxi_hostssl -->
<g id="node6" class="node">
<title>[root] var.esxi_hostssl</title>
<polygon fill="none" stroke="black" points="549.93,-36 427.93,-36 427.93,0 555.93,0 555.93,-30 549.93,-36"/>
<polyline fill="none" stroke="black" points="549.93,-36 549.93,-30 "/>
<polyline fill="none" stroke="black" points="555.93,-30 549.93,-30 "/>
<text text-anchor="middle" x="491.93" y="-14.3" font-family="Times,serif" font-size="14.00">var.esxi_hostssl</text>
</g>
<!-- [root] provider[&quot;registry.terraform.io/kube&#45;cloud/esxi&quot;]&#45;&gt;[root] var.esxi_hostssl -->
<g id="edge9" class="edge">
<title>[root] provider[&quot;registry.terraform.io/kube&#45;cloud/esxi&quot;]&#45;&gt;[root] var.esxi_hostssl</title>
<path fill="none" stroke="black" d="M491.93,-71.7C491.93,-63.98 491.93,-54.71 491.93,-46.11"/>
<polygon fill="black" stroke="black" points="495.43,-46.1 491.93,-36.1 488.43,-46.1 495.43,-46.1"/>
</g>
<!-- [root] var.esxi_password -->
<g id="node7" class="node">
<title>[root] var.esxi_password</title>
<polygon fill="none" stroke="black" points="713.93,-36 573.93,-36 573.93,0 719.93,0 719.93,-30 713.93,-36"/>
<polyline fill="none" stroke="black" points="713.93,-36 713.93,-30 "/>
<polyline fill="none" stroke="black" points="719.93,-30 713.93,-30 "/>
<text text-anchor="middle" x="646.93" y="-14.3" font-family="Times,serif" font-size="14.00">var.esxi_password</text>
</g>
<!-- [root] provider[&quot;registry.terraform.io/kube&#45;cloud/esxi&quot;]&#45;&gt;[root] var.esxi_password -->
<g id="edge10" class="edge">
<title>[root] provider[&quot;registry.terraform.io/kube&#45;cloud/esxi&quot;]&#45;&gt;[root] var.esxi_password</title>
<path fill="none" stroke="black" d="M525.56,-73.81C547.34,-63.98 576,-51.03 600,-40.19"/>
<polygon fill="black" stroke="black" points="601.61,-43.31 609.28,-36 598.73,-36.93 601.61,-43.31"/>
</g>
<!-- [root] var.esxi_username -->
<g id="node8" class="node">
<title>[root] var.esxi_username</title>
<polygon fill="none" stroke="black" points="881.43,-36 738.43,-36 738.43,0 887.43,0 887.43,-30 881.43,-36"/>
<polyline fill="none" stroke="black" points="881.43,-36 881.43,-30 "/>
<polyline fill="none" stroke="black" points="887.43,-30 881.43,-30 "/>
<text text-anchor="middle" x="812.93" y="-14.3" font-family="Times,serif" font-size="14.00">var.esxi_username</text>
</g>
<!-- [root] provider[&quot;registry.terraform.io/kube&#45;cloud/esxi&quot;]&#45;&gt;[root] var.esxi_username -->
<g id="edge11" class="edge">
<title>[root] provider[&quot;registry.terraform.io/kube&#45;cloud/esxi&quot;]&#45;&gt;[root] var.esxi_username</title>
<path fill="none" stroke="black" d="M554.58,-75.34C604.14,-64.53 673.81,-49.34 728.32,-37.45"/>
<polygon fill="black" stroke="black" points="729.29,-40.82 738.31,-35.27 727.8,-33.98 729.29,-40.82"/>
</g>
<!-- [root] meta.count&#45;boundary (EachMode fixup) -->
<g id="node9" class="node">
<title>[root] meta.count&#45;boundary (EachMode fixup)</title>
<ellipse fill="none" stroke="black" cx="222.93" cy="-234" rx="222.86" ry="18"/>
<text text-anchor="middle" x="222.93" y="-230.3" font-family="Times,serif" font-size="14.00">[root] meta.count&#45;boundary (EachMode fixup)</text>
</g>
<!-- [root] meta.count&#45;boundary (EachMode fixup)&#45;&gt;[root] esxi_guest.vmtest1 (expand) -->
<g id="edge3" class="edge">
<title>[root] meta.count&#45;boundary (EachMode fixup)&#45;&gt;[root] esxi_guest.vmtest1 (expand)</title>
<path fill="none" stroke="black" d="M266.76,-216.23C292.3,-206.46 324.71,-194.07 351.83,-183.69"/>
<polygon fill="black" stroke="black" points="353.09,-186.96 361.18,-180.12 350.59,-180.42 353.09,-186.96"/>
</g>
<!-- [root] meta.count&#45;boundary (EachMode fixup)&#45;&gt;[root] esxi_guest.vmtest2 (expand) -->
<g id="edge4" class="edge">
<title>[root] meta.count&#45;boundary (EachMode fixup)&#45;&gt;[root] esxi_guest.vmtest2 (expand)</title>
<path fill="none" stroke="black" d="M303.57,-217.2C354.72,-207.17 422.59,-193.85 491.02,-180.38"/>
<polygon fill="black" stroke="black" points="491.98,-183.75 501.12,-178.39 490.63,-176.89 491.98,-183.75"/>
</g>
<!-- [root] provider[&quot;registry.terraform.io/kube&#45;cloud/esxi&quot;] (close) -->
<g id="node10" class="node">
<title>[root] provider[&quot;registry.terraform.io/kube&#45;cloud/esxi&quot;] (close)</title>
<ellipse fill="none" stroke="black" cx="761.93" cy="-234" rx="297.85" ry="18"/>
<text text-anchor="middle" x="761.93" y="-230.3" font-family="Times,serif" font-size="14.00">[root] provider[&quot;registry.terraform.io/kube&#45;cloud/esxi&quot;] (close)</text>
</g>
<!-- [root] provider[&quot;registry.terraform.io/kube&#45;cloud/esxi&quot;] (close)&#45;&gt;[root] esxi_guest.vmtest1 (expand) -->
<g id="edge5" class="edge">
<title>[root] provider[&quot;registry.terraform.io/kube&#45;cloud/esxi&quot;] (close)&#45;&gt;[root] esxi_guest.vmtest1 (expand)</title>
<path fill="none" stroke="black" d="M678.91,-216.68C623.29,-205.74 550.16,-191.36 493.59,-180.24"/>
<polygon fill="black" stroke="black" points="494.08,-176.76 483.59,-178.27 492.72,-183.63 494.08,-176.76"/>
</g>
<!-- [root] provider[&quot;registry.terraform.io/kube&#45;cloud/esxi&quot;] (close)&#45;&gt;[root] esxi_guest.vmtest2 (expand) -->
<g id="edge6" class="edge">
<title>[root] provider[&quot;registry.terraform.io/kube&#45;cloud/esxi&quot;] (close)&#45;&gt;[root] esxi_guest.vmtest2 (expand)</title>
<path fill="none" stroke="black" d="M717.63,-216.05C692.19,-206.33 660.06,-194.03 633.12,-183.73"/>
<polygon fill="black" stroke="black" points="634.05,-180.34 623.46,-180.03 631.55,-186.87 634.05,-180.34"/>
</g>
<!-- [root] root -->
<g id="node11" class="node">
<title>[root] root</title>
<ellipse fill="none" stroke="black" cx="491.93" cy="-306" rx="58.49" ry="18"/>
<text text-anchor="middle" x="491.93" y="-302.3" font-family="Times,serif" font-size="14.00">[root] root</text>
</g>
<!-- [root] root&#45;&gt;[root] meta.count&#45;boundary (EachMode fixup) -->
<g id="edge12" class="edge">
<title>[root] root&#45;&gt;[root] meta.count&#45;boundary (EachMode fixup)</title>
<path fill="none" stroke="black" d="M448.71,-293.75C407.44,-283.01 344.47,-266.63 295.51,-253.89"/>
<polygon fill="black" stroke="black" points="296.16,-250.44 285.6,-251.31 294.39,-257.21 296.16,-250.44"/>
</g>
<!-- [root] root&#45;&gt;[root] provider[&quot;registry.terraform.io/kube&#45;cloud/esxi&quot;] (close) -->
<g id="edge13" class="edge">
<title>[root] root&#45;&gt;[root] provider[&quot;registry.terraform.io/kube&#45;cloud/esxi&quot;] (close)</title>
<path fill="none" stroke="black" d="M535.31,-293.75C576.38,-283.11 638.87,-266.9 687.84,-254.21"/>
<polygon fill="black" stroke="black" points="688.95,-257.54 697.76,-251.64 687.2,-250.76 688.95,-257.54"/>
</g>
</g>
</svg>
